<?xml version="1.0" standalone="no"?>
<!DOCTYPE svg PUBLIC "-//W3C//DTD SVG 20010904//EN"
 "http://www.w3.org/TR/2001/REC-SVG-20010904/DTD/svg10.dtd">
<svg version="1.0" xmlns="http://www.w3.org/2000/svg"
 width="480.000000pt" height="480.000000pt" viewBox="0 0 480.000000 480.000000"
 preserveAspectRatio="xMidYMid meet">
<metadata>
Created by potrace 1.14, written by Peter Selinger 2001-2017
</metadata>
<g transform="translate(0.000000,480.000000) scale(0.100000,-0.100000)"
fill="#000000" stroke="none">
<path d="M4608 4650 c-4 -14 -8 -37 -8 -52 0 -23 -4 -28 -25 -28 -14 0 -25 -5
-25 -11 0 -7 10 -9 25 -7 23 5 25 2 25 -28 0 -19 5 -34 10 -34 6 0 10 15 10
34 0 30 4 35 28 39 l27 4 -27 2 c-25 1 -27 4 -30 54 -2 41 -5 47 -10 27z"/>
<path d="M250 4595 c-1 -5 -2 -13 -1 -17 0 -5 -10 -8 -23 -8 -14 0 -28 -4 -31
-10 -4 -6 5 -10 19 -10 21 0 26 -5 26 -24 0 -14 5 -28 10 -31 6 -4 10 7 10 24
0 26 4 31 25 31 14 0 25 5 25 10 0 6 -11 10 -24 10 -15 0 -26 7 -29 18 -3 9
-6 13 -7 7z"/>
<path d="M2403 4024 c-72 -7 -149 -17 -170 -23 -21 -6 -74 -12 -118 -13 -71
-1 -74 -2 -30 -7 l50 -6 -55 -14 c-138 -35 -334 -137 -467 -243 -61 -50 -93
-68 -116 -69 -31 -2 -31 -2 -4 -6 23 -4 26 -7 16 -19 -6 -8 -28 -15 -48 -15
l-36 -1 30 -8 c29 -7 29 -8 -10 -10 -32 -2 -34 -4 -12 -7 l27 -4 -52 -65 c-46
-55 -58 -64 -88 -65 -31 -2 -32 -3 -7 -6 36 -6 25 -23 -16 -24 -31 -1 -32 -1
-5 -8 l27 -6 -35 -52 c-29 -44 -40 -53 -64 -53 -19 0 -33 -7 -40 -20 -10 -18
-8 -20 19 -20 46 0 29 -30 -18 -32 l-36 -1 32 -4 33 -4 -21 -41 c-30 -59 -83
-211 -104 -295 -16 -67 -19 -73 -44 -74 -26 -1 -26 -1 4 -9 l30 -8 -27 -1
c-32 -1 -38 -21 -7 -21 19 0 20 -4 15 -32 -14 -76 -18 -306 -7 -378 26 -173
132 -444 215 -552 22 -30 31 -48 23 -52 -7 -2 -5 -5 4 -5 9 -1 28 -16 41 -34
14 -17 55 -61 91 -96 37 -36 65 -67 62 -69 -7 -7 15 -32 28 -32 6 0 2 7 -9 16
-18 14 -18 15 4 4 12 -6 20 -15 17 -20 -10 -15 159 -119 258 -160 128 -52 248
-78 417 -92 164 -13 331 -2 435 30 33 10 65 20 70 21 27 5 104 45 100 52 -6 9
18 18 42 15 10 -2 12 -1 5 1 -17 6 123 103 164 114 31 9 168 128 147 129 -6 0
-15 -4 -18 -10 -3 -5 -13 -10 -21 -10 -12 0 -12 3 -2 20 8 12 24 20 40 20 15
0 30 5 33 10 4 7 -3 8 -21 4 -19 -5 -25 -4 -20 5 4 6 22 12 39 12 l32 1 -30 8
c-28 7 -28 8 -5 9 14 1 32 6 40 12 11 8 8 9 -13 4 -21 -4 -28 -2 -25 7 3 7 20
16 39 19 30 6 31 7 7 8 l-28 1 17 35 c12 25 23 35 40 35 15 0 22 4 18 11 -4 6
-13 8 -21 5 -18 -7 -18 -7 7 49 26 58 59 172 59 201 0 16 6 21 23 19 12 -1 14
0 5 2 -14 4 -18 15 -18 58 0 51 1 54 28 58 l27 4 -27 2 c-24 1 -28 5 -28 29 1
102 44 237 93 291 42 45 96 79 120 74 16 -3 18 -2 8 5 -10 7 -1 14 37 26 65
22 80 39 47 54 -135 62 -346 58 -604 -10 -64 -17 -152 -34 -196 -39 -44 -4
-93 -11 -110 -16 -28 -7 -27 -8 20 -13 l50 -5 -99 -19 c-83 -16 -120 -18 -225
-11 -69 4 -146 9 -171 11 -25 1 -51 4 -59 6 -7 1 -15 -2 -18 -9 -2 -7 18 -23
46 -38 28 -14 51 -22 51 -18 0 4 7 -2 16 -13 8 -10 12 -13 8 -5 -14 28 113
-69 172 -130 60 -64 97 -127 107 -185 5 -27 2 -33 -16 -39 -22 -7 -22 -7 3
-15 l25 -8 -25 -2 c-18 -2 -20 -4 -7 -7 39 -10 2 -108 -65 -168 -139 -127
-371 -116 -546 25 -34 27 -78 58 -100 69 -43 22 -84 70 -112 133 -18 40 -18
43 -2 50 14 5 13 7 -4 7 -14 1 -24 9 -28 25 -3 13 -9 31 -12 40 -4 12 0 16 15
16 23 0 26 7 12 29 -5 8 -16 11 -24 8 -17 -6 -27 54 -27 160 0 50 3 62 18 66
15 4 15 5 -2 6 -12 1 -16 6 -12 17 3 9 6 24 6 34 0 11 9 20 23 23 l22 4 -22 2
c-17 1 -23 7 -23 26 0 20 5 25 28 26 23 2 24 2 5 6 -26 5 -27 9 -12 69 10 37
15 44 38 45 24 2 24 2 3 6 -29 6 -24 25 9 34 l24 7 -25 2 c-24 2 -23 3 5 10
24 6 26 8 8 9 -13 0 -23 3 -23 6 0 19 54 107 68 111 45 15 48 17 30 21 -28 7
-21 23 10 24 16 1 20 3 10 6 -26 6 -22 23 5 23 16 0 18 3 8 9 -11 7 -3 20 33
59 144 154 372 241 555 213 40 -6 82 -16 92 -22 11 -5 23 -7 28 -4 18 10 135
-58 185 -108 50 -51 51 -51 26 -58 l-25 -7 27 -1 c20 -1 29 -8 37 -32 16 -47
14 -59 -11 -60 -22 -1 -22 -1 2 -8 17 -5 26 -15 28 -33 3 -23 -3 -30 -37 -48
-23 -11 -41 -25 -41 -30 0 -6 -16 -27 -35 -49 -65 -72 -43 -91 107 -90 57 0
121 6 143 14 22 7 33 13 25 14 -8 1 9 15 39 31 29 16 60 35 69 42 8 7 25 11
37 10 13 -2 26 2 30 7 3 6 -2 11 -11 11 -14 0 -12 6 11 30 16 17 38 30 50 30
12 0 30 9 40 20 18 20 17 20 -9 20 -35 0 -24 20 12 21 l27 1 -25 8 c-25 8 -25
8 5 10 30 2 30 2 5 10 -25 8 -25 8 5 10 23 2 25 4 9 7 -32 6 -20 43 15 44 23
2 24 2 4 6 -32 6 -29 23 5 24 24 2 25 2 4 6 -16 3 -22 9 -18 20 3 8 6 19 6 24
0 5 8 9 18 10 10 0 12 3 5 6 -21 8 -15 43 7 43 13 0 20 6 19 18 -1 23 -17 70
-18 55 -1 -7 -5 -13 -11 -13 -15 0 -12 50 3 51 6 0 3 4 -8 9 -16 7 -17 9 -3 9
14 1 15 6 7 34 -5 17 -17 38 -26 45 -9 6 -13 12 -8 12 5 0 1 6 -9 13 -10 7
-19 25 -19 40 -1 15 -5 27 -9 27 -11 0 -49 71 -43 81 4 5 1 9 -6 9 -7 0 -37
26 -68 58 -60 61 -124 116 -140 119 -5 1 -26 14 -46 28 -78 52 -357 121 -462
114 -10 -1 -77 -7 -150 -15z m-98 -1454 c3 -6 -1 -7 -9 -4 -18 7 -21 14 -7 14
6 0 13 -4 16 -10z"/>
<path d="M3505 2580 c-3 -5 -2 -10 4 -10 5 0 13 5 16 10 3 6 2 10 -4 10 -5 0
-13 -4 -16 -10z"/>
<path d="M1742 2475 c-11 -12 -10 -15 3 -15 8 0 15 7 15 15 0 18 -2 18 -18 0z"/>
<path d="M3318 1963 c6 -2 18 -2 25 0 6 3 1 5 -13 5 -14 0 -19 -2 -12 -5z"/>
<path d="M3253 1793 c9 -2 23 -2 30 0 6 3 -1 5 -18 5 -16 0 -22 -2 -12 -5z"/>
<path d="M262 396 c-1 -24 -9 -44 -19 -52 -17 -12 -17 -13 -1 -14 10 0 18 -10
21 -27 l4 -28 2 28 c1 23 5 27 30 27 35 0 44 10 25 28 -8 7 -14 8 -14 2 0 -5
-9 -10 -19 -10 -16 0 -21 8 -24 43 l-4 42 -1 -39z"/>
<path d="M358 323 c7 -3 16 -2 19 1 4 3 -2 6 -13 5 -11 0 -14 -3 -6 -6z"/>
<path d="M312 250 c0 -19 2 -27 5 -17 2 9 2 25 0 35 -3 9 -5 1 -5 -18z"/>
<path d="M4547 213 c-20 -2 -35 -8 -32 -14 8 -12 112 -12 120 1 3 6 0 10 -9
10 -8 0 -20 1 -28 3 -7 2 -30 2 -51 0z"/>
<path d="M4585 130 c-3 -5 -1 -10 4 -10 6 0 11 5 11 10 0 6 -2 10 -4 10 -3 0
-8 -4 -11 -10z"/>
</g>
</svg>
